<svg xmlns="http://www.w3.org/2000/svg" width="1544" height="500" viewBox="0 0 1544 500">
  <defs>
    <linearGradient id="a" x1="-44.627%" x2="69.283%" y1="54.838%" y2="75.651%">
      <stop offset="0%" stop-color="#004157"/>
      <stop offset="100%" stop-color="#191351"/>
    </linearGradient>
    <linearGradient id="b" x1="41.256%" x2="30.096%" y1="22.952%" y2="67.713%">
      <stop offset="0%" stop-color="#B865EB"/>
      <stop offset="100%" stop-color="#4645C7"/>
    </linearGradient>
  </defs>
  <g fill="none" fill-rule="evenodd">
    <rect width="1544" height="500" fill="url(#a)"/>
    <path fill="url(#b)" fill-rule="nonzero" d="M296.361779,175.328917 C301.005354,180.078625 303.360401,186.599097 302.818679,193.210944 L293.115053,311.870041 C292.134684,323.866445 282.058326,332.955569 270.189617,332.955569 C269.562202,332.955569 268.928797,332.931082 268.294193,332.879723 C255.618298,331.84832 246.17894,320.774029 247.212644,308.141583 L254.772759,215.721445 L223.695149,217.446819 C231.372117,233.033125 235.6897,250.561 235.6897,269.095793 C235.6897,300.206291 223.523764,328.465654 203.700634,349.467568 L173.943768,319.809513 C186.174423,306.402473 193.640456,288.602263 193.640456,269.095793 C193.640456,227.488514 159.675669,193.637958 117.927846,193.637958 C98.3552022,193.637958 80.4934119,201.07875 67.0408894,213.26925 L37.2822252,183.611194 C53.9724854,167.964569 75.2338105,157.112445 98.863964,153.271708 L155.850068,88.5895555 L123.566172,69.9054585 L84.514367,104.622583 C75.0246729,113.06193 60.4683356,112.231194 52.0021572,102.773583 C43.5365785,93.3147778 44.3677356,78.8082501 53.8580288,70.3718889 L105.368203,24.5792778 C112.798881,17.974 123.648868,16.8757083 132.259465,21.8607222 C132.259465,21.8607222 237.707968,82.9111665 237.875158,83.030014 C243.318729,86.4198472 246.862083,91.7255695 248.146272,97.5568473 C250.579819,106.066667 248.781475,115.589972 242.486972,122.733944 L198.302607,172.885681 L278.590477,168.431597 C285.224155,168.069681 291.71581,170.578014 296.361779,175.328917 Z M253.712089,77.0207639 C232.422,77.0207639 215.166649,59.8225554 215.166649,38.606236 C215.166649,17.3911111 232.422599,0.191111111 253.712089,0.191111111 C274.999182,0.191111111 292.253933,17.3911111 292.253933,38.606236 C292.253933,59.8225554 274.999182,77.0207639 253.712089,77.0207639 Z M117.928445,344.553029 C133.661107,344.553029 148.285159,339.740013 160.405553,331.524027 L190.484815,361.500403 C170.484308,377.121348 145.308694,386.459515 117.928445,386.459515 C52.8890446,386.459515 0.165392496,333.914709 0.165392496,269.095194 C0.165392496,241.808708 9.53523696,216.715819 25.208573,196.782333 L55.2884344,226.759903 C47.0421803,238.839917 42.2146369,253.414528 42.2146369,269.095194 C42.2146369,310.702473 76.1800235,344.553029 117.928445,344.553029 Z" transform="translate(1066 54)"/>
    <g transform="translate(352 183)">
      <rect width="73" height="12" x="598" y="141" fill="#4645C7" rx="6"/>
      <rect width="31" height="12" x="544" y="141" fill="#4645C7" rx="6"/>
      <rect width="73" height="12" x="448" y="141" fill="#4645C7" rx="6"/>
      <rect width="73" height="12" x="349" y="141" fill="#B05FE2" rx="6"/>
      <rect width="73" height="12" x="253" y="141" fill="#4645C7" rx="6"/>
      <rect width="73" height="12" x="96" y="141" fill="#4645C7" rx="6"/>
      <rect width="73" height="12" y="141" fill="#4645C7" rx="6"/>
      <rect width="73" height="12" x="618" y="196" fill="#B05FE2" rx="6"/>
      <rect width="73" height="12" x="522" y="196" fill="#B05FE2" rx="6"/>
      <rect width="37" height="12" x="465" y="196" fill="#4645C7" rx="6"/>
      <rect width="73" height="12" x="609" y="87" fill="#4645C7" rx="6"/>
      <rect width="73" height="12" x="513" y="87" fill="#B05FE2" rx="6"/>
      <rect width="73" height="12" x="352" y="87" fill="#4645C7" rx="6"/>
      <rect width="37" height="12" x="452" y="87" fill="#4645C7" rx="6"/>
      <rect width="37" height="12" x="287" y="87" fill="#B05FE2" rx="6"/>
      <rect width="73" height="12" x="664" fill="#4645C7" rx="6"/>
      <rect width="37" height="12" x="599" fill="#B05FE2" rx="6"/>
      <rect width="37" height="12" x="193" y="141" fill="#B05FE2" rx="6"/>
    </g>
  </g>
</svg>
