<svg xmlns="http://www.w3.org/2000/svg" width="870" height="869" viewBox="0 0 870 869">
  <defs>
    <linearGradient id="a" x1="41.256%" x2="30.096%" y1="22.952%" y2="67.713%">
      <stop offset="0%" stop-color="#B865EB"/>
      <stop offset="100%" stop-color="#4645C7"/>
    </linearGradient>
  </defs>
  <g fill="none">
    <rect width="869" height="868.994" x=".249" y=".005" fill="#FFFFFF"/>
    <path fill="url(#a)" d="M651.114272,407.313806 C658.041585,414.419958 661.554858,424.175393 660.746713,434.067537 L646.270787,611.596263 C644.808266,629.544371 629.776296,643.142828 612.070485,643.142828 C611.134504,643.142828 610.189586,643.106193 609.24288,643.029352 C590.332903,641.486246 576.251214,624.917733 577.793298,606.018027 L589.071523,467.746037 L542.709759,470.327412 C554.162306,493.646459 560.603303,519.870333 560.603303,547.600682 C560.603303,594.145846 542.454086,636.425358 512.881823,667.846827 L468.490352,623.474698 C486.736116,603.416104 497.873989,576.784781 497.873989,547.600682 C497.873989,485.351032 447.205116,434.706403 384.925465,434.706403 C355.726878,434.706403 329.080553,445.83875 309.011999,464.07725 L264.617846,419.70512 C289.516476,396.295829 321.234248,380.059704 356.485852,374.313486 L441.498063,277.540963 L393.336754,249.587236 L335.079038,301.528361 C320.922255,314.154671 299.207024,312.911787 286.577129,298.762028 C273.948128,284.610482 275.188053,262.906917 289.345729,250.285074 L366.188915,181.773648 C377.274044,171.891333 393.46012,170.248153 406.30546,177.706352 C406.30546,177.706352 563.614167,269.045389 563.863582,269.223199 C571.984333,274.29481 577.27033,282.232829 579.186091,290.957144 C582.81647,303.688889 580.133691,317.936935 570.743514,328.625204 L504.829013,403.658421 L624.602938,396.99456 C634.499097,396.453088 644.183388,400.205866 651.114272,407.313806 Z M587.48921,260.232616 C555.728528,260.232616 529.986892,234.501963 529.986892,202.759717 C529.986892,171.019259 555.729422,145.285926 587.48921,145.285926 C619.245422,145.285926 644.986163,171.019259 644.986163,202.759717 C644.986163,234.501963 619.245422,260.232616 587.48921,260.232616 Z M384.926359,660.494066 C408.396437,660.494066 430.212686,653.293198 448.293962,641.001064 L493.166385,685.84944 C463.329509,709.220311 425.772377,723.191367 384.926359,723.191367 C287.900193,723.191367 209.246734,644.57782 209.246734,547.599786 C209.246734,506.775819 223.224723,469.233745 246.6063,439.410778 L291.479617,484.26094 C279.177805,502.334139 271.976047,524.139565 271.976047,547.599786 C271.976047,609.849436 322.645814,660.494066 384.926359,660.494066 Z"/>
  </g>
</svg>
